# xmcd CD database file
#
# Track frame offsets:
#	150
#	14834
#	35482
#	52087
#	69956
#	82414
#	96780
#	122068
#	130496
#	149634
#	181464
#
# Disc length: 2558 seconds
#
# Revision: 0
# Processed by: cddbd v1.5.2PL0 Copyright (c) Steve Scherf et al.
# Submitted via: CDex 1.51
#
DISCID=ac09fc0b
DTITLE=Michael Van Merwyk and Bluesoul - New Shoes
DYEAR=2015
DGENRE=Blues
TTITLE0=Won`t Get Any Better
TTITLE1=Warm
TTITLE2=Happy Man
TTITLE3=Lullaby
TTITLE4=New Shoes
TTITLE5=At Least Some Day
TTITLE6=Desire
TTITLE7=Lonely Days
TTITLE8=Heal My Wounds
TTITLE9=Ain`t No Use
TTITLE10=Leaving
EXTD=YEAR: 2015
EXTT0=
EXTT1=
EXTT2=
EXTT3=
EXTT4=
EXTT5=
EXTT6=
EXTT7=
EXTT8=
EXTT9=
EXTT10=
PLAYORDER=
